<?xml version="1.0" encoding="UTF-8"?>
<svg id="Layer_1" data-name="Layer 1" xmlns="http://www.w3.org/2000/svg" xmlns:xlink="http://www.w3.org/1999/xlink" viewBox="0 0 509.5 116.76">
  <defs>
    <style>
      .cls-1 {
        fill: #048876;
      }

      .cls-2 {
        clip-rule: evenodd;
        fill: none;
      }

      .cls-3 {
        fill: #213925;
      }

      .cls-4 {
        fill: url(#linear-gradient);
      }

      .cls-5 {
        clip-path: url(#clippath);
      }
    </style>
    <clipPath id="clippath">
      <path class="cls-2" d="M330.09,68.69c45.41-4.48,70.22-27.38,74.44-68.69-18.02,8.17-36.22,13.63-54.61,16.38-72.66,18.8-37.22,113.32,22.2,77.71,18.2-10.91,27.24-32.34,22.35-52.99,1.8,18.58-8.18,36.31-25.01,44.4-48.53,23.34-78.16-40.04-12.36-47.85-11.21,2.77-20.21,13.12-27.02,31.04Z"/>
    </clipPath>
    <linearGradient id="linear-gradient" x1="344.43" y1="88.42" x2="395.96" y2="32.77" gradientUnits="userSpaceOnUse">
      <stop offset="0" stop-color="#008963"/>
      <stop offset=".67" stop-color="#83c55e"/>
    </linearGradient>
  </defs>
  <g class="cls-5">
    <rect class="cls-4" x="283.1" width="154.56" height="142.37"/>
  </g>
  <path class="cls-1" d="M251.87,54.7h34.55v45.56l-.59-.69c-1.71-2.04-3.85-3.32-6.42-3.85-2.57-.53-5-.15-7.3,1.13-4.11,2.4-8.32,3.57-12.63,3.5-5.03-.1-9.77-1.26-14.21-3.48-4.44-2.22-8.23-5.18-11.35-8.88-3.13-3.7-5.58-8.07-7.35-13.1-1.78-5.04-2.62-10.32-2.52-15.84v-.05c.1-5.5,1.22-10.74,3.36-15.75,2.14-5,4.94-9.29,8.42-12.86,3.47-3.57,7.56-6.4,12.26-8.49,4.7-2.09,9.57-3.08,14.61-2.98,4.8.07,9.42,1.66,13.84,4.79,4.43,3.13,7.05,6.83,7.87,11.1-2.63-4.38-5.82-7.83-9.57-10.36-3.75-2.53-7.78-3.83-12.09-3.9-5.1-.07-9.92,1.55-14.46,4.84-4.54,3.29-8.23,7.84-11.06,13.65-2.83,5.81-4.36,12.13-4.59,18.98-.26,7.37.79,14.18,3.16,20.43,2.37,6.25,5.67,11.18,9.9,14.78,4.23,3.6,8.86,5.44,13.89,5.5,4.87.1,9.54-1.48,14.02-4.74,1.65-1.22,2.92-2.77,3.83-4.67.9-1.89,1.36-3.89,1.36-6v-26.75h-26.9v-1.88Z"/>
  <path class="cls-1" d="M301.08,100.25h-7.65V18.82h7.65v81.44Z"/>
  <path class="cls-1" d="M454,52.76l-15.11,47.99h-13.9l-23.13-67.76h-3.88v-1.29h20.72v1.29h-3.02l22.44,65.69,15.11-48.16-5.96-17.52h-3.88v-1.29h20.72v1.29h-3.02l22.44,65.69,20.63-65.69h-3.02v-1.29h8.37v1.29h-3.88l-21.32,67.76h-13.9l-16.4-47.99Z"/>
  <path class="cls-3" d="M0,28.8h21.83v.89c-1.91,0-3.36.27-4.34.81-.98.54-1.67,1.54-2.06,3-.39,1.46-.58,3.66-.58,6.58v55.84h16.2c4.41,0,8.04-.28,10.87-.85,2.83-.57,5.08-1.71,6.76-3.45,1.67-1.73,2.51-4.32,2.51-7.78h.89c0,2.86.43,5.53,1.3,8.01.86,2.48,1.8,4.13,2.82,4.97H0v-.89c1.91,0,3.36-.27,4.34-.81.98-.54,1.67-1.54,2.06-3,.39-1.46.58-3.65.58-6.58v-45.46c0-2.92-.19-5.11-.58-6.58-.39-1.46-1.07-2.46-2.06-3-.98-.54-2.43-.81-4.34-.81v-.89Z"/>
  <path class="cls-3" d="M65.46,95.1c.98-.54,1.67-1.54,2.06-3,.39-1.46.58-3.65.58-6.58v-45.46c0-2.92-.19-5.11-.58-6.58-.39-1.46-1.07-2.46-2.06-3-.98-.54-2.43-.81-4.34-.81v-.89h21.83v.89c-1.91,0-3.36.27-4.34.81s-1.67,1.54-2.06,3c-.39,1.46-.58,3.66-.58,6.58v45.46c0,2.92.19,5.12.58,6.58.39,1.46,1.07,2.46,2.06,3s2.43.81,4.34.81v.89h-21.83v-.89c1.91,0,3.36-.27,4.34-.81Z"/>
  <path class="cls-3" d="M93.91,95.1c1.22-.54,2.06-1.52,2.51-2.95.45-1.43.67-3.64.67-6.62v-51.9c-4.29-5.43-9.04-9.53-14.23-12.3s-10.65-4.16-16.38-4.16v-.9c8.59,0,16.79,1.92,24.61,5.77,7.81,3.85,15.09,10.69,21.83,20.54l30.07,44.02v-46.53c0-2.98-.22-5.19-.67-6.62-.45-1.43-1.28-2.42-2.51-2.95-1.22-.54-3.09-.81-5.59-.81v-.89h18.43v.89c-2.51,0-4.37.27-5.59.81-1.22.54-2.06,1.52-2.51,2.95-.45,1.43-.67,3.64-.67,6.62v47.78l8.86,12.97c6.86,10.02,15.15,15.03,24.88,15.03,4.59,0,8.83-1.19,12.71-3.58,3.88-2.39,6.95-5.59,9.22-9.62,2.27-4.03,3.4-8.43,3.4-13.2s-1.13-9.17-3.4-13.2c-2.27-4.03-5.34-7.22-9.22-9.57-3.88-2.36-8.11-3.53-12.71-3.53h-1.16l-9.49,22.37c-1.37,3.22-2.06,5.55-2.06,6.98,0,1.25.49,2.13,1.48,2.64.98.51,2.58.76,4.79.76v.89h-18.52v-.89c2.44,0,4.43-.31,5.95-.94,1.52-.63,2.83-1.66,3.94-3.09,1.1-1.43,2.25-3.55,3.45-6.35l21.92-51.54c-1.02-1.61-2.16-2.73-3.45-3.36-1.28-.63-2.91-.94-4.88-.94v-.89h15.12l24.16,56.73c1.19,2.8,2.3,4.94,3.31,6.4,1.01,1.46,2.15,2.49,3.4,3.09,1.25.6,2.83.9,4.74.9v.89h-22.46v-.89c1.67,0,2.88-.22,3.62-.67.75-.45,1.12-1.21,1.12-2.28,0-1.43-.75-3.91-2.24-7.43l-19.33-45.46c-.95-2.15-1.79-3.88-2.51-5.19l-11.63,27.38h.72c4.71,0,9.08,1.22,13.11,3.67,4.03,2.45,7.22,5.76,9.57,9.93,2.36,4.18,3.53,8.71,3.53,13.6s-1.18,9.51-3.53,13.69c-2.36,4.17-5.55,7.49-9.57,9.93-4.03,2.45-8.4,3.67-13.11,3.67-7.82,0-14.87-1.76-21.16-5.28-6.29-3.52-11.71-8.59-16.24-15.21l-40.36-58.88-1.88-2.6v50.74c0,2.98.22,5.19.67,6.62.45,1.43,1.28,2.42,2.51,2.95,1.22.54,3.09.81,5.59.81v.89h-18.43v-.89c2.51,0,4.37-.27,5.59-.81Z"/>
</svg>